<?xml version="1.0" standalone="no"?>
<!DOCTYPE svg PUBLIC "-//W3C//DTD SVG 20010904//EN"
 "http://www.w3.org/TR/2001/REC-SVG-20010904/DTD/svg10.dtd">
<svg version="1.0" xmlns="http://www.w3.org/2000/svg"
 width="16.000000pt" height="16.000000pt" viewBox="0 0 16.000000 16.000000"
 preserveAspectRatio="xMidYMid meet">
<metadata>
Created by potrace 1.11, written by Peter Selinger 2001-2013
</metadata>
<g transform="translate(0.000000,16.000000) scale(0.002286,-0.002286)"
fill="#000000" stroke="none">
<path d="M3120 6980 c-253 -34 -400 -67 -640 -143 -98 -31 -303 -107 -336
-125 -11 -6 -72 -36 -138 -68 -65 -31 -155 -78 -200 -103 -78 -46 -286 -179
-296 -190 -3 -3 -43 -35 -90 -70 -47 -36 -116 -92 -155 -125 -85 -72 -311
-299 -380 -380 -239 -282 -451 -633 -587 -971 -44 -108 -131 -374 -144 -440
-4 -21 -7 -32 -23 -100 -6 -22 -12 -56 -16 -75 -3 -19 -10 -57 -15 -85 -17
-90 -36 -238 -45 -365 -7 -93 -7 -405 0 -480 9 -98 16 -164 19 -190 2 -14 7
-52 11 -85 4 -33 13 -90 21 -127 7 -37 16 -81 19 -96 20 -116 105 -395 165
-547 73 -185 197 -431 278 -554 9 -14 22 -34 27 -43 6 -10 32 -50 60 -90 298
-437 711 -819 1161 -1074 340 -192 765 -348 1091 -400 19 -3 45 -8 57 -10 26
-6 67 -12 211 -29 108 -14 705 -15 765 -2 14 3 48 8 75 12 166 20 334 55 525
111 629 182 1203 548 1646 1049 44 50 93 108 109 130 17 22 38 49 47 59 29 32
172 246 236 354 59 98 212 402 212 421 0 5 11 33 24 62 51 117 129 371 165
542 20 94 21 124 21 760 l-1 662 -39 153 c-21 85 -51 191 -65 236 l-26 83 29
50 c78 131 76 308 -5 436 -33 53 -107 123 -157 150 -23 12 -77 31 -121 43 -78
20 -81 22 -117 75 -20 30 -37 57 -37 61 -1 3 37 25 83 47 82 40 207 131 254
186 93 108 161 244 190 380 11 53 7 259 -7 310 -43 165 -127 306 -241 406 -92
80 -126 101 -285 171 -79 34 -345 51 -445 27 -25 -6 -49 -12 -55 -13 -11 -2
-56 -18 -120 -44 -60 -24 -163 -92 -226 -150 -62 -57 -145 -171 -179 -247 -12
-27 -23 -51 -24 -52 -2 -2 -57 28 -124 66 -382 220 -854 378 -1268 427 -27 3
-62 8 -79 11 -16 3 -176 7 -355 8 -267 2 -349 -1 -460 -15z"/>
</g>
</svg>
