<?xml version="1.0" encoding="utf-8"?>
<!-- Generator: Adobe Illustrator 21.0.2, SVG Export Plug-In . SVG Version: 6.00 Build 0)  -->
<svg version="1.1" id="Layer_1" xmlns="http://www.w3.org/2000/svg" xmlns:xlink="http://www.w3.org/1999/xlink" x="0px" y="0px"
	 viewBox="0 0 512 512" style="enable-background:new 0 0 512 512;" xml:space="preserve">
<style type="text/css">
	.st0{fill:#3B7732;stroke:#000000;stroke-miterlimit:10;}
	.st1{fill:#2D592E;stroke:#000000;stroke-miterlimit:10;}
	.st2{fill:#71B266;stroke:#000000;stroke-miterlimit:10;}
	.st3{fill:#659E4D;}
	.st4{fill:#CEFFC0;}
</style>
<circle class="st0" cx="259.9" cy="256" r="256"/>
<circle class="st1" cx="360.7" cy="356" r="91.3"/>
<ellipse class="st2" cx="420.6" cy="218.4" rx="45.3" ry="46.9"/>
<ellipse class="st2" cx="476.6" cy="152.8" rx="31.9" ry="31"/>
<ellipse class="st2" cx="452" cy="57.4" rx="59.5" ry="57.4"/>
<ellipse class="st2" cx="405.8" cy="307.6" rx="34.6" ry="33.9"/>
<path class="st3" d="M90.1,218.4c-13.2-47.9-11.4-60.7-45.8-82.8c6.1-37.8,69.8-88.2,102.4-103.2c34.1,18.7,36.9,18.2,113.2,29
	C205.3,62.8,89.8,137.7,90.1,218.4z"/>
<path class="st4" d="M415.8,57.4c-3.9-10.8-5.3-13.4-13.3-16.1c0.7-8.4,19.6-25.3,27.6-27s-5.7,2.5,22,8.8
	C439.6,23.2,414.3,39.4,415.8,57.4z"/>
<path class="st4" d="M460,156.9c-2.9-6.6-3.9-8.2-8.9-9.9c0-5.1,10.7-15.3,15.5-16.3c4.8-1-3.3,1.5,13.9,5.5
	C472.8,136.1,458.2,145.9,460,156.9z"/>
<path class="st4" d="M396.1,219.2c-3.9-9.7-5.2-12.1-12.1-14.4c0.2-7.6,15.3-23.1,22-24.7s-4.7,2.3,19.1,7.8
	C414.5,187.9,393.9,202.8,396.1,219.2z"/>
<path class="st4" d="M388.3,307.3c-2-6.4-2.7-7.9-7.5-9c0.7-5.3,12.7-17.1,17.6-18.7c4.9-1.6-3.5,2,13,3.8
	C403.8,284.3,387.9,296.2,388.3,307.3z"/>
</svg>
